normalP10_grf.mot
version=1
nRows=30
nColumns=19
inDegrees=yes
endheader
time	1_ground_force_vx	1_ground_force_vy	1_ground_force_vz	1_ground_force_px	1_ground_force_py	1_ground_force_pz	1_ground_torque_x	1_ground_torque_y	1_ground_torque_z	2_ground_force_vx	2_ground_force_vy	2_ground_force_vz	2_ground_force_px	2_ground_force_py	2_ground_force_pz	2_ground_torque_x	2_ground_torque_y	2_ground_torque_z
            1.557000	          -14.066572	          582.900123	           16.218386	            0.212599	            0.003141	           -0.311744	            0.075938	           -3.146766	           -0.087554	            0.009806	           -0.167793	            0.018816	            0.905632	            0.000990	           -0.250706	            0.068832	            0.004925	            0.086926
            1.558000	          -13.785695	          584.175770	           16.253158	            0.212507	            0.003142	           -0.311783	            0.074743	           -3.167268	           -0.088121	           -0.020437	           -0.008349	            0.011680	            0.905632	            0.000990	           -0.250706	           -0.065345	            0.000527	           -0.037845
            1.559000	          -13.474623	          587.205705	           16.232340	            0.212814	            0.003140	           -0.311637	            0.072885	           -3.176249	           -0.087802	            0.009807	           -0.167988	            0.026421	            0.905632	            0.000990	           -0.250706	            0.001841	           -0.003793	            0.003545
            1.560000	          -13.217009	          588.399149	           16.228646	            0.213096	            0.003139	           -0.311714	            0.071291	           -3.173766	           -0.087536	           -0.010336	            0.951207	            0.022991	            0.905632	            0.000990	           -0.250706	            0.035732	           -0.001211	            0.044886
            1.561000	          -12.903919	          590.073520	           16.195770	            0.213166	            0.003139	           -0.311853	            0.069741	           -3.189123	           -0.087532	            0.003113	            0.231669	            0.020237	            0.905632	            0.000990	           -0.250706	           -0.014837	            0.012038	           -0.017140
            1.562000	          -12.583057	          591.747204	           16.178287	            0.213305	            0.003139	           -0.311934	            0.068019	           -3.198729	           -0.087453	            0.025323	           -0.087047	            0.003549	            0.905632	            0.000990	           -0.250706	            0.085785	            0.002316	           -0.058530
            1.563000	          -12.277536	          593.420444	           16.168404	            0.213583	            0.003137	           -0.311847	            0.066458	           -3.212147	           -0.087519	            0.002098	           -0.168778	            0.018529	            0.905632	            0.000990	           -0.250706	           -0.032030	           -0.003693	            0.128484
            1.564000	          -12.025590	          595.093844	           16.166190	            0.213721	            0.003137	           -0.311815	            0.065167	           -3.224811	           -0.087605	           -0.013052	           -0.087927	            0.018823	            0.905632	            0.000990	           -0.250706	            0.018629	            0.003021	            0.024384
            1.565000	          -11.697799	          596.607825	           16.148190	            0.213973	            0.003136	           -0.311857	            0.063271	           -3.226922	           -0.087342	           -0.004601	            0.230793	            0.035491	            0.905632	            0.000990	           -0.250706	           -0.048550	            0.011715	            0.107514
            1.566000	          -11.462111	          598.042423	           16.137526	            0.214179	            0.003135	           -0.311766	            0.062161	           -3.243294	           -0.087517	           -0.013661	           -0.328268	            0.002412	            0.905632	            0.000990	           -0.250706	            0.001488	           -0.002126	            0.128577
            1.567000	          -11.189204	          599.237519	           16.064826	            0.214314	            0.003134	           -0.311840	            0.060771	           -3.254566	           -0.087251	            0.018242	            0.151731	           -0.026456	            0.905632	            0.000990	           -0.250706	            0.001819	            0.007823	            0.045269
            1.568000	          -10.907408	          600.752283	           16.115729	            0.214495	            0.003133	           -0.311770	            0.059125	           -3.256455	           -0.087357	            0.040985	            0.071492	            0.027050	            0.905632	            0.000990	           -0.250706	           -0.015040	            0.004383	            0.024585
            1.569000	          -10.687763	          602.026042	           16.096890	            0.214744	            0.003132	           -0.311808	            0.057979	           -3.265897	           -0.087323	            0.001591	           -0.328024	            0.048504	            0.905632	            0.000990	           -0.250706	            0.035121	            0.003652	            0.087073
            1.570000	          -10.385249	          602.980214	           16.107684	            0.215085	            0.003132	           -0.312046	            0.056404	           -3.274875	           -0.087483	           -0.020552	           -0.007938	            0.019013	            0.905632	            0.000990	           -0.250706	            0.035249	            0.006175	            0.045491
            1.571000	          -10.151744	          603.936104	           16.103108	            0.215219	            0.003131	           -0.312060	            0.055139	           -3.280283	           -0.087464	            0.010527	            0.151574	            0.019553	            0.905632	            0.000990	           -0.250706	            0.001794	           -0.001739	            0.045232
            1.572000	           -9.901468	          605.209668	           16.107218	            0.215876	            0.003128	           -0.311820	            0.053820	           -3.289672	           -0.087552	            0.001887	           -0.247302	           -0.020405	            0.905632	            0.000990	           -0.250706	            0.018616	           -0.001028	           -0.058641
            1.573000	           -9.655593	          605.447233	           16.130953	            0.215944	            0.003128	           -0.311936	            0.052650	           -3.301365	           -0.087958	           -0.013330	           -0.167741	            0.025957	            0.905632	            0.000990	           -0.250706	            0.001791	            0.004644	           -0.037774
            1.574000	           -9.428946	          606.562180	           16.126952	            0.216235	            0.003127	           -0.311934	            0.051363	           -3.304153	           -0.087849	            0.002722	            0.072968	           -0.042208	            0.905632	            0.000990	           -0.250706	            0.052362	            0.004244	           -0.100245
            1.575000	           -9.165482	          607.356338	           16.137252	            0.216549	            0.003126	           -0.312132	            0.049737	           -3.295861	           -0.087570	            0.010499	            0.152360	            0.027217	            0.905632	            0.000990	           -0.250706	            0.102479	            0.002452	            0.045433
            1.576000	           -8.948488	          607.991848	           16.200464	            0.216978	            0.003124	           -0.312123	            0.049014	           -3.330198	           -0.088736	            0.025707	            0.071122	           -0.034693	            0.905632	            0.000990	           -0.250706	           -0.048620	           -0.008675	            0.107413
            1.577000	           -8.722520	          608.946398	           16.226626	            0.217516	            0.003122	           -0.312137	            0.047558	           -3.320182	           -0.088473	            0.009694	           -0.168579	            0.010549	            0.905632	            0.000990	           -0.250706	           -0.032017	           -0.001376	            0.086999
            1.578000	           -8.483665	          609.343808	           16.304462	            0.217605	            0.003121	           -0.312126	            0.046434	           -3.335173	           -0.089241	            0.016775	           -0.407314	            0.001923	            0.905632	            0.000990	           -0.250706	            0.085382	           -0.008435	            0.066432
            1.579000	           -8.220168	          610.138189	           16.329995	            0.217916	            0.003120	           -0.312212	            0.045077	           -3.345799	           -0.089548	           -0.019941	            0.230829	            0.019823	            0.905632	            0.000990	           -0.250706	           -0.149147	           -0.000947	           -0.058837
            1.580000	           -8.003885	          610.615072	           16.431141	            0.218252	            0.003119	           -0.312110	            0.043864	           -3.346415	           -0.090049	            0.018160	            0.151877	            0.027224	            0.905632	            0.000990	           -0.250706	            0.068706	            0.003986	            0.087248
            1.581000	           -7.749691	          611.010533	           16.478372	            0.218612	            0.003118	           -0.312264	            0.042552	           -3.354929	           -0.090479	            0.010134	           -0.008011	           -0.004208	            0.905632	            0.000990	           -0.250706	            0.001698	           -0.004377	            0.003848
            1.582000	           -7.538528	          612.125198	           16.581532	            0.218963	            0.003116	           -0.312043	            0.041321	           -3.355213	           -0.090888	           -0.005840	           -0.248915	           -0.005099	            0.905632	            0.000990	           -0.250706	           -0.082466	            0.005879	            0.107883
            1.583000	           -7.256043	          611.961765	           16.680576	            0.219350	            0.003115	           -0.312280	            0.039883	           -3.363668	           -0.091685	           -0.013092	           -0.088573	           -0.004545	            0.905632	            0.000990	           -0.250706	           -0.048765	            0.000346	            0.066215
            1.584000	           -6.993245	          612.596523	           16.812837	            0.219773	            0.003113	           -0.312327	            0.038455	           -3.368607	           -0.092452	           -0.005062	            0.071854	            0.034550	            0.905632	            0.000990	           -0.250706	            0.018570	            0.003978	            0.024551
            1.585000	           -6.730808	          613.152593	           16.929509	            0.220083	            0.003112	           -0.312300	            0.037037	           -3.373959	           -0.093157	            0.032940	           -0.088683	           -0.027530	            0.905632	            0.000990	           -0.250706	           -0.082125	            0.002564	            0.024339
            1.586000	           -6.453746	          613.547021	           17.053306	            0.220575	            0.003110	           -0.312453	            0.035551	           -3.379795	           -0.093940	           -0.004633	            0.231658	            0.027505	            0.905632	            0.000990	           -0.250706	           -0.015019	            0.002995	           -0.016892
